<?xml version="1.0" standalone="no"?>
<!DOCTYPE svg PUBLIC "-//W3C//DTD SVG 20010904//EN"
 "http://www.w3.org/TR/2001/REC-SVG-20010904/DTD/svg10.dtd">
<svg version="1.0" xmlns="http://www.w3.org/2000/svg"
 width="256.000000pt" height="256.000000pt" viewBox="0 0 256.000000 256.000000"
 preserveAspectRatio="xMidYMid meet">
<metadata>
Created by potrace 1.11, written by Peter Selinger 2001-2013
</metadata>
<g transform="translate(0.000000,256.000000) scale(0.100000,-0.100000)"
fill="#000000" stroke="none">
<path d="M57 2541 c-60 -39 -57 34 -57 -1261 0 -1295 -3 -1222 57 -1261 27
-18 74 -19 1223 -19 1149 0 1196 1 1223 19 60 39 57 -34 57 1261 0 1295 3
1222 -57 1261 -27 18 -74 19 -1223 19 -1149 0 -1196 -1 -1223 -19z m498 -623
c12 -13 39 -36 59 -53 21 -16 49 -41 64 -55 15 -14 45 -38 66 -55 21 -16 52
-43 69 -58 l31 -28 -145 -145 -144 -144 -47 45 c-54 52 -56 42 32 134 25 26
60 65 78 86 30 37 31 41 15 53 -22 16 -84 69 -121 102 -15 14 -37 32 -49 41
l-23 16 37 41 c21 23 41 42 46 42 6 0 20 -10 32 -22z m785 -513 l0 -55 -252 2
-253 3 -3 39 c-6 69 -19 66 258 66 l250 0 0 -55z"/>
</g>
</svg>
